<mxfile host="65bd71144e">
    <diagram id="-x2WmiZHg_akARdYQSPT" name="Page-1">
        <mxGraphModel dx="1454" dy="568" grid="1" gridSize="10" guides="1" tooltips="1" connect="1" arrows="1" fold="1" page="1" pageScale="1" pageWidth="850" pageHeight="1100" math="0" shadow="0">
            <root>
                <mxCell id="0"/>
                <mxCell id="1" parent="0"/>
                <mxCell id="6" style="edgeStyle=none;html=1;" edge="1" parent="1" source="2">
                    <mxGeometry relative="1" as="geometry">
                        <mxPoint x="360" y="100" as="targetPoint"/>
                    </mxGeometry>
                </mxCell>
                <mxCell id="2" value="email&lt;br&gt;name&lt;br&gt;password" style="whiteSpace=wrap;html=1;" vertex="1" parent="1">
                    <mxGeometry x="70" y="30" width="140" height="140" as="geometry"/>
                </mxCell>
                <mxCell id="3" value="Authentication_1" style="text;html=1;align=center;verticalAlign=middle;resizable=0;points=[];autosize=1;strokeColor=none;fillColor=none;" vertex="1" parent="1">
                    <mxGeometry x="85" y="200" width="110" height="30" as="geometry"/>
                </mxCell>
                <mxCell id="12" style="edgeStyle=none;html=1;exitX=1;exitY=0.5;exitDx=0;exitDy=0;" edge="1" parent="1" source="8">
                    <mxGeometry relative="1" as="geometry">
                        <mxPoint x="570" y="95" as="targetPoint"/>
                    </mxGeometry>
                </mxCell>
                <mxCell id="8" value="pancard&lt;br&gt;Gst_no&lt;br&gt;Address_proof_adhar&lt;br&gt;bank_account_no&lt;br&gt;" style="whiteSpace=wrap;html=1;" vertex="1" parent="1">
                    <mxGeometry x="365" y="20" width="135" height="150" as="geometry"/>
                </mxCell>
                <mxCell id="9" value="Authentication_2" style="text;html=1;align=center;verticalAlign=middle;resizable=0;points=[];autosize=1;strokeColor=none;fillColor=none;" vertex="1" parent="1">
                    <mxGeometry x="377.5" y="195" width="110" height="30" as="geometry"/>
                </mxCell>
                <mxCell id="14" value="Upload_product_functionality" style="ellipse;whiteSpace=wrap;html=1;" vertex="1" parent="1">
                    <mxGeometry x="570" y="55" width="180" height="115" as="geometry"/>
                </mxCell>
            </root>
        </mxGraphModel>
    </diagram>
</mxfile>